<?xml version="1.0" encoding="UTF-8"?>
<svg xmlns="http://www.w3.org/2000/svg" xmlns:xlink="http://www.w3.org/1999/xlink" width="750pt" height="749.999995pt" viewBox="0 0 750 749.999995" version="1.2">
<defs>
<clipPath id="clip1">
  <path d="M 40.824219 40.824219 L 709.074219 40.824219 L 709.074219 709.074219 L 40.824219 709.074219 Z M 40.824219 40.824219 "/>
</clipPath>
</defs>
<g id="surface1">
<g clip-path="url(#clip1)" clip-rule="nonzero">
<path style=" stroke:none;fill-rule:nonzero;fill:rgb(0%,0%,0%);fill-opacity:1;" d="M 374.9375 49.683594 C 195.59375 49.683594 49.683594 195.59375 49.683594 374.9375 C 49.683594 554.28125 195.59375 700.183594 374.9375 700.183594 C 554.28125 700.183594 700.183594 554.28125 700.183594 374.9375 C 700.183594 195.59375 554.28125 49.683594 374.9375 49.683594 Z M 374.9375 709.046875 C 285.691406 709.046875 201.789062 674.292969 138.6875 611.1875 C 75.578125 548.085938 40.828125 464.179688 40.828125 374.9375 C 40.828125 285.691406 75.578125 201.789062 138.6875 138.6875 C 201.789062 75.578125 285.691406 40.828125 374.9375 40.828125 C 464.179688 40.828125 548.085938 75.578125 611.1875 138.6875 C 674.292969 201.789062 709.046875 285.691406 709.046875 374.9375 C 709.046875 464.179688 674.292969 548.085938 611.1875 611.1875 C 548.085938 674.292969 464.179688 709.046875 374.9375 709.046875 "/>
</g>
<path style=" stroke:none;fill-rule:nonzero;fill:rgb(0%,0%,0%);fill-opacity:1;" d="M 384.53125 214.421875 C 296.027344 214.421875 224.015625 286.425781 224.015625 374.9375 C 224.015625 463.445312 296.027344 535.453125 384.53125 535.453125 C 436.664062 535.453125 484.820312 510.382812 514.765625 468.804688 C 492.917969 481.851562 467.78125 488.871094 442.078125 488.871094 C 363.941406 488.871094 300.367188 425.296875 300.367188 347.15625 C 300.367188 287.722656 337.738281 235.128906 391.894531 214.589844 C 389.441406 214.476562 386.984375 214.421875 384.53125 214.421875 Z M 384.53125 544.433594 C 291.070312 544.433594 215.035156 468.398438 215.035156 374.9375 C 215.035156 281.476562 291.070312 205.441406 384.53125 205.441406 C 394.882812 205.441406 405.285156 206.390625 415.445312 208.261719 L 438.246094 212.464844 L 415.527344 217.078125 C 354 229.566406 309.347656 284.273438 309.347656 347.15625 C 309.347656 420.34375 368.890625 479.890625 442.078125 479.890625 C 473.28125 479.890625 503.605469 468.839844 527.457031 448.78125 L 545.164062 433.882812 L 534.3125 454.320312 C 504.792969 509.90625 447.402344 544.433594 384.53125 544.433594 "/>
</g>
</svg>
