<?xml version="1.0" encoding="UTF-8"?>
<svg xmlns="http://www.w3.org/2000/svg" xmlns:xlink="http://www.w3.org/1999/xlink" width="375pt" height="374.999991pt" viewBox="0 0 375 374.999991" version="1.2">
<defs>
<clipPath id="clip1">
  <path d="M 206.027344 55.375 L 310.242188 55.375 L 310.242188 210.585938 L 206.027344 210.585938 Z M 206.027344 55.375 "/>
</clipPath>
<clipPath id="clip2">
  <path d="M 82 242 L 279 242 L 279 322.121094 L 82 322.121094 Z M 82 242 "/>
</clipPath>
</defs>
<g id="surface1">
<path style=" stroke:none;fill-rule:nonzero;fill:rgb(9.799194%,9.799194%,11.759949%);fill-opacity:1;" d="M 363.398438 237.496094 C 358.644531 253.679688 351.386719 269.035156 342.378906 283.179688 C 334.941406 294.6875 326.484375 305.503906 316.984375 315.34375 C 315.753906 316.6875 314.382812 317.890625 313.078125 319.160156 C 311.75 320.40625 310.460938 321.691406 309.109375 322.90625 L 304.988281 326.488281 L 302.929688 328.28125 L 300.792969 329.980469 L 296.527344 333.386719 C 295.082031 334.492188 293.589844 335.535156 292.128906 336.621094 C 289.234375 338.832031 286.15625 340.78125 283.140625 342.832031 C 282.707031 343.125 282.25 343.429688 281.777344 343.75 C 281.285156 344.042969 280.773438 344.351562 280.242188 344.671875 C 279.179688 345.308594 278.035156 345.992188 276.816406 346.71875 C 274.410156 348.230469 271.558594 349.65625 268.484375 351.289062 C 267.710938 351.6875 266.9375 352.125 266.117188 352.515625 C 265.296875 352.898438 264.457031 353.289062 263.601562 353.683594 C 261.894531 354.472656 260.121094 355.292969 258.296875 356.136719 C 254.546875 357.601562 250.640625 359.359375 246.382812 360.722656 C 229.558594 366.824219 208.566406 370.59375 187.5 370.679688 C 166.433594 370.59375 145.441406 366.824219 128.621094 360.722656 C 124.359375 359.359375 120.453125 357.601562 116.703125 356.136719 C 114.878906 355.292969 113.109375 354.472656 111.398438 353.683594 C 110.542969 353.289062 109.703125 352.898438 108.882812 352.515625 C 108.066406 352.125 107.289062 351.6875 106.515625 351.289062 C 103.441406 349.65625 100.589844 348.230469 98.1875 346.71875 C 96.96875 345.992188 95.824219 345.308594 94.761719 344.671875 C 94.230469 344.351562 93.71875 344.046875 93.226562 343.75 C 92.75 343.429688 92.292969 343.125 91.859375 342.832031 C 80.414062 335.332031 69.664062 326.8125 59.890625 317.242188 C 49.582031 306.945312 40.570312 295.410156 32.621094 283.179688 C 23.613281 269.035156 16.355469 253.679688 11.601562 237.496094 C 6.652344 221.363281 4.363281 204.433594 4.214844 187.5 C 4.363281 170.566406 6.652344 153.636719 11.601562 137.503906 C 16.355469 121.320312 23.613281 105.964844 32.621094 91.820312 C 40.058594 80.3125 48.515625 69.496094 58.015625 59.65625 C 59.246094 58.3125 60.617188 57.109375 61.921875 55.839844 C 63.25 54.59375 64.539062 53.308594 65.890625 52.09375 L 70.011719 48.511719 L 72.070312 46.714844 L 74.207031 45.019531 L 78.472656 41.613281 C 79.917969 40.507812 81.410156 39.464844 82.871094 38.378906 C 85.765625 36.167969 88.84375 34.21875 91.859375 32.167969 C 92.292969 31.875 92.75 31.570312 93.222656 31.25 C 93.714844 30.957031 94.226562 30.648438 94.757812 30.328125 C 95.820312 29.691406 96.964844 29.007812 98.183594 28.28125 C 100.589844 26.769531 103.441406 25.34375 106.515625 23.710938 C 107.289062 23.3125 108.0625 22.875 108.882812 22.484375 C 109.703125 22.101562 110.542969 21.710938 111.398438 21.316406 C 113.105469 20.527344 114.878906 19.707031 116.703125 18.863281 C 120.453125 17.398438 124.359375 15.640625 128.617188 14.277344 C 145.441406 8.175781 166.433594 4.40625 187.5 4.320312 C 208.566406 4.40625 229.558594 8.175781 246.378906 14.277344 C 250.640625 15.640625 254.546875 17.398438 258.296875 18.863281 C 260.121094 19.707031 261.890625 20.527344 263.601562 21.316406 C 264.457031 21.710938 265.296875 22.101562 266.117188 22.484375 C 266.933594 22.875 267.710938 23.3125 268.484375 23.710938 C 271.558594 25.34375 274.410156 26.769531 276.8125 28.28125 C 278.03125 29.007812 279.175781 29.691406 280.238281 30.328125 C 280.769531 30.648438 281.28125 30.953125 281.773438 31.25 C 282.25 31.570312 282.707031 31.875 283.140625 32.167969 C 294.585938 39.667969 305.335938 48.1875 315.109375 57.757812 C 325.417969 68.054688 334.429688 79.589844 342.378906 91.820312 C 351.386719 105.964844 358.644531 121.320312 363.398438 137.503906 C 368.351562 153.636719 370.636719 170.566406 370.785156 187.5 C 370.636719 204.433594 368.351562 221.363281 363.398438 237.496094 Z M 375 187.375 L 374.996094 187.359375 C 374.839844 170.070312 372.515625 152.773438 367.480469 136.277344 C 362.636719 119.734375 355.214844 104.027344 345.96875 89.605469 L 341.519531 82.921875 C 341.519531 82.921875 340.234375 81.125 338.308594 78.429688 C 336.453125 75.675781 333.613281 72.285156 330.898438 68.800781 C 327.976562 65.488281 325.175781 62.070312 322.816406 59.742188 C 320.527344 57.347656 319 55.757812 319 55.757812 C 319 55.757812 318.613281 55.363281 317.917969 54.695312 C 317.222656 54.023438 316.230469 53.0625 315.042969 51.914062 C 312.71875 49.546875 309.347656 46.699219 306.039062 43.773438 C 304.34375 42.363281 302.597656 41.011719 300.984375 39.714844 C 300.175781 39.070312 299.390625 38.449219 298.648438 37.855469 C 297.878906 37.300781 297.152344 36.777344 296.480469 36.292969 C 293.796875 34.355469 292.003906 33.0625 292.003906 33.0625 C 292.003906 33.0625 291.617188 32.746094 290.984375 32.339844 C 290.359375 31.921875 289.527344 31.363281 288.695312 30.804688 C 287.03125 29.691406 285.363281 28.578125 285.363281 28.578125 C 284.917969 28.277344 284.453125 27.960938 283.96875 27.632812 C 283.464844 27.328125 282.945312 27.011719 282.402344 26.6875 C 281.3125 26.03125 280.144531 25.328125 278.898438 24.582031 C 276.4375 23.03125 273.527344 21.566406 270.382812 19.890625 C 269.589844 19.480469 268.796875 19.035156 267.960938 18.632812 C 267.117188 18.238281 266.261719 17.839844 265.386719 17.433594 C 263.640625 16.625 261.828125 15.785156 259.957031 14.917969 C 256.125 13.410156 252.125 11.617188 247.765625 10.210938 C 230.550781 3.957031 209.054688 0.0859375 187.5 0 C 165.945312 0.0859375 144.449219 3.957031 127.234375 10.210938 C 122.875 11.617188 118.875 13.414062 115.042969 14.917969 C 113.171875 15.785156 111.359375 16.625 109.613281 17.433594 C 108.738281 17.84375 107.878906 18.242188 107.039062 18.632812 C 106.203125 19.035156 105.410156 19.480469 104.617188 19.890625 C 101.472656 21.566406 98.558594 23.03125 96.097656 24.582031 C 94.855469 25.328125 93.6875 26.03125 92.597656 26.6875 C 92.054688 27.011719 91.53125 27.332031 91.03125 27.632812 C 90.542969 27.964844 90.078125 28.277344 89.632812 28.578125 C 89.632812 28.578125 87.96875 29.691406 86.304688 30.804688 C 85.472656 31.363281 84.640625 31.921875 84.015625 32.339844 C 83.382812 32.746094 82.996094 33.0625 82.996094 33.0625 C 82.996094 33.0625 81.203125 34.355469 78.519531 36.292969 C 77.847656 36.777344 77.121094 37.300781 76.351562 37.855469 C 75.609375 38.449219 74.824219 39.070312 74.015625 39.714844 C 72.402344 41.011719 70.65625 42.363281 68.960938 43.773438 C 65.652344 46.699219 62.28125 49.546875 59.957031 51.914062 C 58.769531 53.0625 57.777344 54.023438 57.082031 54.695312 C 56.386719 55.363281 56 55.757812 56 55.757812 C 56 55.757812 54.472656 57.347656 52.183594 59.742188 C 49.824219 62.070312 47.023438 65.488281 44.101562 68.800781 C 41.386719 72.285156 38.546875 75.675781 36.691406 78.429688 C 34.761719 81.125 33.476562 82.921875 33.476562 82.921875 L 29.035156 89.605469 C 19.785156 104.027344 12.363281 119.734375 7.519531 136.277344 C 2.484375 152.773438 0.160156 170.074219 0.00390625 187.363281 L 0 187.375 L 0 187.625 L 0.00390625 187.640625 C 0.160156 204.929688 2.484375 222.226562 7.519531 238.722656 C 12.363281 255.265625 19.785156 270.972656 29.035156 285.394531 L 33.480469 292.078125 C 33.480469 292.078125 34.765625 293.875 36.691406 296.574219 C 38.546875 299.324219 41.386719 302.714844 44.101562 306.199219 C 47.023438 309.511719 49.824219 312.929688 52.183594 315.257812 C 54.472656 317.648438 56 319.242188 56 319.242188 C 56 319.242188 56.386719 319.636719 57.082031 320.304688 C 57.777344 320.976562 58.769531 321.9375 59.957031 323.085938 C 62.28125 325.453125 65.652344 328.300781 68.960938 331.226562 C 70.65625 332.636719 72.402344 333.988281 74.015625 335.285156 C 74.824219 335.929688 75.609375 336.550781 76.351562 337.144531 C 77.121094 337.699219 77.847656 338.222656 78.519531 338.707031 C 81.203125 340.644531 82.996094 341.9375 82.996094 341.9375 C 82.996094 341.9375 83.382812 342.253906 84.015625 342.660156 C 84.640625 343.078125 85.472656 343.636719 86.304688 344.195312 C 87.96875 345.308594 89.636719 346.421875 89.636719 346.421875 C 90.082031 346.722656 90.546875 347.039062 91.03125 347.367188 C 91.535156 347.671875 92.054688 347.988281 92.597656 348.3125 C 93.6875 348.96875 94.855469 349.671875 96.101562 350.417969 C 98.5625 351.96875 101.472656 353.433594 104.621094 355.109375 C 105.410156 355.519531 106.203125 355.964844 107.039062 356.367188 C 107.882812 356.761719 108.738281 357.160156 109.613281 357.566406 C 111.359375 358.375 113.175781 359.214844 115.042969 360.082031 C 118.875 361.589844 122.875 363.382812 127.234375 364.789062 C 144.449219 371.042969 165.945312 374.914062 187.5 375 C 209.054688 374.914062 230.550781 371.042969 247.765625 364.789062 C 252.125 363.382812 256.125 361.585938 259.957031 360.082031 C 261.828125 359.214844 263.640625 358.375 265.386719 357.566406 C 266.261719 357.15625 267.121094 356.757812 267.960938 356.367188 C 268.796875 355.964844 269.589844 355.519531 270.382812 355.109375 C 273.527344 353.433594 276.441406 351.96875 278.902344 350.417969 C 280.144531 349.671875 281.3125 348.96875 282.402344 348.3125 C 282.945312 347.988281 283.46875 347.667969 283.96875 347.367188 C 284.457031 347.035156 284.921875 346.722656 285.367188 346.421875 C 285.367188 346.421875 287.03125 345.308594 288.695312 344.195312 C 289.527344 343.636719 290.363281 343.078125 290.984375 342.660156 C 291.617188 342.253906 292.003906 341.9375 292.003906 341.9375 C 292.003906 341.9375 293.796875 340.644531 296.480469 338.707031 C 297.152344 338.222656 297.878906 337.699219 298.648438 337.144531 C 299.390625 336.550781 300.175781 335.929688 300.984375 335.285156 C 302.597656 333.988281 304.34375 332.636719 306.039062 331.226562 C 309.347656 328.300781 312.71875 325.453125 315.042969 323.085938 C 316.230469 321.9375 317.222656 320.976562 317.917969 320.304688 C 318.613281 319.636719 319 319.242188 319 319.242188 C 319 319.242188 320.527344 317.648438 322.816406 315.257812 C 325.175781 312.929688 327.976562 309.511719 330.898438 306.199219 C 333.613281 302.714844 336.453125 299.324219 338.308594 296.574219 C 340.238281 293.875 341.519531 292.078125 341.519531 292.078125 L 345.96875 285.394531 C 355.214844 270.972656 362.636719 255.265625 367.480469 238.722656 C 372.515625 222.226562 374.839844 204.925781 374.996094 187.636719 L 375 187.625 L 375 187.375 "/>
<g clip-path="url(#clip1)" clip-rule="nonzero">
<path style=" stroke:none;fill-rule:nonzero;fill:rgb(0%,0%,0%);fill-opacity:1;" d="M 213.40625 169.386719 C 213.390625 169.457031 213.375 169.527344 213.351562 169.59375 L 206.066406 192.628906 L 212.789062 194.746094 L 220.167969 171.425781 C 220.210938 171.296875 220.242188 171.167969 220.269531 171.035156 C 220.816406 168.210938 222.03125 165.5625 223.78125 163.367188 L 286.144531 88.222656 C 286.8125 87.414062 287.976562 87.21875 288.875 87.765625 C 289.773438 88.3125 290.132812 89.433594 289.714844 90.402344 L 250.585938 181.347656 C 249.382812 184.003906 247.558594 186.328125 245.289062 188.101562 C 245.179688 188.183594 245.078125 188.273438 244.980469 188.371094 L 227.550781 205.558594 L 232.507812 210.5625 L 249.726562 193.585938 C 249.777344 193.535156 249.832031 193.488281 249.886719 193.441406 C 252.929688 190.996094 255.402344 187.796875 257.039062 184.183594 L 309.414062 62.453125 C 310.574219 59.761719 310.515625 57.835938 309.246094 56.71875 C 308.148438 55.753906 306.9375 55.296875 305.757812 55.390625 C 304.722656 55.46875 303.746094 55.976562 303.078125 56.78125 L 218.308594 158.929688 C 215.902344 161.945312 214.199219 165.570312 213.40625 169.386719 "/>
</g>
<path style=" stroke:none;fill-rule:nonzero;fill:rgb(0%,0%,0%);fill-opacity:1;" d="M 215.027344 156.269531 L 228.957031 139.480469 C 225.335938 138.25 221.585938 137.210938 217.695312 136.421875 C 214.859375 135.847656 211.523438 135.574219 207.777344 135.574219 C 173.230469 135.574219 103.453125 158.683594 62.144531 181.351562 C 62.035156 181.410156 62.023438 181.515625 62.023438 181.570312 L 62.84375 213.222656 C 101.445312 189.519531 176.855469 163.421875 211.976562 160.976562 C 212.839844 159.316406 213.855469 157.730469 215.027344 156.269531 "/>
<path style=" stroke:none;fill-rule:nonzero;fill:rgb(0%,0%,0%);fill-opacity:1;" d="M 257.503906 154.566406 C 253.25 151.449219 248.667969 148.515625 243.765625 145.902344 L 230.574219 161.800781 C 238.730469 162.765625 245.449219 164.296875 252.199219 166.898438 L 257.503906 154.566406 "/>
<path style=" stroke:none;fill-rule:nonzero;fill:rgb(0%,0%,0%);fill-opacity:1;" d="M 266.171875 173.65625 C 273.242188 177.679688 281.238281 182.960938 291.425781 189.929688 C 286.933594 183.429688 279.703125 174.082031 269.933594 164.917969 L 266.171875 173.65625 "/>
<g clip-path="url(#clip2)" clip-rule="nonzero">
<path style=" stroke:none;fill-rule:nonzero;fill:rgb(0%,0%,0%);fill-opacity:1;" d="M 246.71875 260.179688 L 275.273438 276.519531 C 275.605469 276.710938 275.96875 276.800781 276.324219 276.800781 C 277.058594 276.800781 277.769531 276.417969 278.160156 275.738281 C 278.742188 274.726562 278.390625 273.4375 277.378906 272.859375 L 250.226562 257.320312 C 251.273438 256.472656 252.320312 255.644531 253.367188 254.835938 L 273.164062 263.726562 C 273.445312 263.855469 273.742188 263.914062 274.03125 263.914062 C 274.839844 263.914062 275.609375 263.449219 275.960938 262.667969 C 276.441406 261.605469 275.964844 260.355469 274.898438 259.878906 L 257.277344 251.964844 C 260.402344 249.765625 263.5625 247.816406 266.839844 246.320312 C 267.902344 245.835938 268.367188 244.582031 267.882812 243.523438 C 267.394531 242.460938 266.140625 241.996094 265.078125 242.480469 C 260.496094 244.574219 256.21875 247.402344 251.988281 250.585938 C 251.863281 250.664062 251.742188 250.75 251.632812 250.851562 C 248.59375 253.160156 245.570312 255.644531 242.484375 258.199219 C 235.523438 263.953125 228.15625 270.042969 219.167969 275.226562 C 219.109375 275.253906 219.054688 275.289062 218.996094 275.324219 C 216.847656 276.558594 214.597656 277.734375 212.246094 278.847656 C 212.222656 278.859375 212.203125 278.871094 212.183594 278.878906 C 205.449219 282.0625 197.820312 284.679688 188.90625 286.335938 C 188.898438 286.335938 188.886719 286.335938 188.875 286.339844 C 188.871094 286.339844 188.863281 286.34375 188.859375 286.34375 C 184.167969 287.214844 179.121094 287.816406 173.664062 288.097656 C 152.933594 289.152344 133.214844 281.261719 117.371094 274.921875 C 117.113281 274.816406 116.859375 274.714844 116.601562 274.613281 C 105.046875 269.992188 95.058594 266.078125 87.457031 266.839844 C 86.292969 266.957031 85.445312 267.992188 85.5625 269.152344 C 85.679688 270.3125 86.71875 271.148438 87.882812 271.039062 C 91.734375 270.652344 96.601562 271.773438 102.179688 273.65625 L 83.5 291.230469 C 82.652344 292.027344 82.613281 293.363281 83.414062 294.210938 C 83.828125 294.652344 84.390625 294.875 84.953125 294.875 C 85.472656 294.875 85.996094 294.683594 86.402344 294.300781 L 106.648438 275.253906 C 108.359375 275.894531 110.117188 276.578125 111.929688 277.296875 C 109.414062 279.773438 107.089844 282.234375 104.667969 284.800781 C 102.636719 286.953125 100.539062 289.175781 98.210938 291.53125 C 97.390625 292.363281 97.402344 293.699219 98.234375 294.519531 C 98.644531 294.921875 99.183594 295.125 99.71875 295.125 C 100.265625 295.125 100.8125 294.914062 101.226562 294.496094 C 103.585938 292.105469 105.703125 289.863281 107.746094 287.695312 C 110.5625 284.710938 113.257812 281.875 116.234375 279.015625 C 117.746094 279.621094 119.296875 280.238281 120.878906 280.859375 L 100.753906 303.894531 C 99.988281 304.769531 100.078125 306.105469 100.960938 306.871094 C 101.363281 307.21875 101.855469 307.390625 102.351562 307.390625 C 102.941406 307.390625 103.527344 307.144531 103.945312 306.667969 L 125.070312 282.488281 C 126.257812 282.941406 127.464844 283.394531 128.6875 283.839844 L 116.917969 300.46875 C 116.246094 301.421875 116.472656 302.738281 117.425781 303.410156 C 117.796875 303.671875 118.222656 303.796875 118.644531 303.796875 C 119.308594 303.796875 119.964844 303.488281 120.375 302.90625 L 132.828125 285.308594 C 134.054688 285.734375 135.296875 286.148438 136.554688 286.550781 L 122.597656 311.589844 C 122.027344 312.605469 122.394531 313.890625 123.417969 314.457031 C 123.742188 314.640625 124.09375 314.726562 124.445312 314.726562 C 125.1875 314.726562 125.90625 314.335938 126.292969 313.640625 L 140.6875 287.824219 C 141.980469 288.199219 143.289062 288.5625 144.605469 288.90625 L 137.425781 306.074219 C 136.972656 307.148438 137.484375 308.386719 138.5625 308.835938 C 138.828125 308.945312 139.105469 309 139.375 309 C 140.203125 309 140.988281 308.511719 141.328125 307.699219 L 148.773438 289.914062 C 150.144531 290.21875 151.527344 290.503906 152.921875 290.761719 L 145.46875 316.761719 C 145.148438 317.882812 145.796875 319.050781 146.921875 319.371094 C 147.113281 319.425781 147.3125 319.453125 147.503906 319.453125 C 148.421875 319.453125 149.269531 318.847656 149.535156 317.921875 L 157.121094 291.453125 C 158.570312 291.664062 160.023438 291.84375 161.488281 291.988281 L 158.785156 308.953125 C 158.601562 310.105469 159.390625 311.1875 160.542969 311.371094 C 160.65625 311.386719 160.769531 311.394531 160.878906 311.394531 C 161.898438 311.394531 162.800781 310.65625 162.964844 309.617188 L 165.71875 292.304688 C 167.085938 292.371094 168.457031 292.414062 169.835938 292.414062 C 169.96875 292.414062 170.101562 292.40625 170.234375 292.402344 L 169.3125 319.9375 C 169.273438 321.101562 170.1875 322.078125 171.355469 322.117188 C 171.378906 322.117188 171.402344 322.121094 171.429688 322.121094 C 172.5625 322.121094 173.503906 321.21875 173.539062 320.078125 L 174.472656 292.273438 C 176.019531 292.1875 177.527344 292.070312 179.015625 291.933594 L 180.589844 308.925781 C 180.691406 310.019531 181.613281 310.84375 182.695312 310.84375 C 182.757812 310.84375 182.824219 310.839844 182.890625 310.832031 C 184.054688 310.726562 184.910156 309.699219 184.804688 308.539062 L 183.222656 291.480469 C 184.75 291.28125 186.238281 291.058594 187.703125 290.808594 L 193.695312 317.796875 C 193.914062 318.78125 194.789062 319.453125 195.757812 319.453125 C 195.910156 319.453125 196.0625 319.4375 196.21875 319.402344 C 197.359375 319.148438 198.078125 318.023438 197.824219 316.886719 L 191.863281 290.027344 C 193.339844 289.714844 194.789062 289.378906 196.203125 289.019531 L 202.257812 305.988281 C 202.566406 306.851562 203.378906 307.390625 204.25 307.390625 C 204.488281 307.390625 204.726562 307.351562 204.960938 307.269531 C 206.0625 306.878906 206.636719 305.671875 206.242188 304.570312 L 200.289062 287.890625 C 201.695312 287.46875 203.0625 287.023438 204.402344 286.554688 L 217.917969 313.554688 C 218.289062 314.296875 219.039062 314.726562 219.8125 314.726562 C 220.132812 314.726562 220.453125 314.652344 220.757812 314.5 C 221.800781 313.980469 222.226562 312.714844 221.703125 311.671875 L 208.394531 285.074219 C 209.699219 284.554688 210.96875 284.011719 212.214844 283.453125 L 223.304688 300.339844 C 223.710938 300.957031 224.386719 301.292969 225.078125 301.292969 C 225.472656 301.292969 225.875 301.183594 226.234375 300.949219 C 227.210938 300.308594 227.484375 299 226.84375 298.027344 L 216.070312 281.625 C 217.265625 281.027344 218.433594 280.417969 219.570312 279.789062 L 240.164062 304.570312 C 240.582031 305.074219 241.183594 305.335938 241.792969 305.335938 C 242.269531 305.335938 242.746094 305.175781 243.140625 304.847656 C 244.042969 304.105469 244.167969 302.773438 243.421875 301.875 L 223.285156 277.648438 C 224.371094 276.992188 225.425781 276.328125 226.464844 275.652344 L 242.707031 291.414062 C 243.117188 291.8125 243.652344 292.011719 244.179688 292.011719 C 244.734375 292.011719 245.28125 291.796875 245.699219 291.371094 C 246.511719 290.535156 246.496094 289.199219 245.65625 288.386719 L 230.046875 273.242188 C 231.035156 272.546875 232.011719 271.851562 232.960938 271.148438 L 261.851562 293.949219 C 262.242188 294.257812 262.703125 294.40625 263.164062 294.40625 C 263.789062 294.40625 264.40625 294.132812 264.824219 293.605469 C 265.546875 292.691406 265.394531 291.363281 264.476562 290.640625 L 236.445312 268.515625 C 237.371094 267.792969 238.285156 267.074219 239.183594 266.355469 L 260.230469 279.859375 C 260.585938 280.085938 260.980469 280.191406 261.371094 280.191406 C 262.070312 280.191406 262.75 279.851562 263.152344 279.222656 C 263.785156 278.242188 263.5 276.9375 262.519531 276.308594 L 242.632812 263.550781 C 243.496094 262.84375 244.347656 262.140625 245.183594 261.449219 C 245.699219 261.023438 246.207031 260.605469 246.71875 260.179688 "/>
</g>
</g>
</svg>
